<svg xmlns="http://www.w3.org/2000/svg" width="119.064" height="24.836" viewBox="0 0 119.064 24.836">
  <g id="waymore_logo_white_full" data-name="waymore logo white full" transform="translate(-9505.718 -56.809)">
    <path id="Path_40106" data-name="Path 40106" d="M268.467,85.572a1.729,1.729,0,1,1-3.032,1.664l-4.842-8.819a1.729,1.729,0,1,1,3.032-1.664ZM289.539,89.5l-7.609-12.8a1.719,1.719,0,0,0-.818-.709h0q-.073-.031-.149-.054l-.031-.01q-.059-.017-.12-.031l-.057-.012-.1-.015-.076-.008-.083,0h-.088l-.072,0c-.033,0-.066,0-.1.009l-.06.008c-.038.006-.075.013-.113.021l-.043.01q-.067.017-.132.039l-.02.007a1.721,1.721,0,0,0-.946.8L275.6,82.811l-3.326-6.058a1.729,1.729,0,1,0-3.031,1.664l4.385,7.987-4.385,7.987a1.729,1.729,0,1,0,3.031,1.664L275.6,90l3.326,6.058a1.729,1.729,0,1,0,3.032-1.664L277.57,86.4l2.931-5.339,6.065,10.2a1.729,1.729,0,0,0,2.973-1.767Zm1.275,3.65a1.729,1.729,0,1,0,1.729,1.729A1.729,1.729,0,0,0,290.815,93.148Z" transform="translate(9245.338 -19.046)" fill="#fff"/>
    <g id="Group_17919" data-name="Group 17919" transform="translate(9542.369 65.411)">
      <g id="Group_17782" data-name="Group 17782">
        <path id="Path_39645" data-name="Path 39645" d="M80.43,442.728l2.3-8.809h2.535l-3.524,12.747H79.19l-2.913-9.079-2.913,9.079H70.776l-3.542-12.747h2.625l2.337,8.773,2.823-8.773H77.59Z" transform="translate(-67.234 -433.918)" fill="#fff"/>
        <path id="Path_39646" data-name="Path 39646" d="M261.7,479.671v-.108a2.33,2.33,0,0,1-.953,1.052,2.882,2.882,0,0,1-1.528.4,4.011,4.011,0,0,1-3.128-1.339,4.851,4.851,0,0,1-1.2-3.371A4.788,4.788,0,0,1,256.07,473a3.929,3.929,0,0,1,3.074-1.331,2.991,2.991,0,0,1,1.69.423,2.213,2.213,0,0,1,.845.926v-1.1H264v7.245q0,.809.072,1.6h-2.283A6.224,6.224,0,0,1,261.7,479.671Zm-3.784-5.241a2.712,2.712,0,0,0-.62,1.879,2.851,2.851,0,0,0,.62,1.915,2,2,0,0,0,1.591.728,1.951,1.951,0,0,0,1.564-.728,2.879,2.879,0,0,0,.611-1.915,2.764,2.764,0,0,0-.6-1.879,1.987,1.987,0,0,0-1.573-.692A2.041,2.041,0,0,0,257.912,474.431Z" transform="translate(-236.743 -468.021)" fill="#fff"/>
        <path id="Path_39647" data-name="Path 39647" d="M366.957,486.608h-2.535l2.085-4.6-3.757-7.731h2.679l2.355,5.178,2.175-5.178h2.553Z" transform="translate(-334.182 -470.374)" fill="#fff"/>
        <path id="Path_39648" data-name="Path 39648" d="M494.878,446.665h-2.445v-8.935l-3.668,8.935H486.7L483.03,437.8v8.863h-2.373V433.918h3.272l3.829,9.2,3.74-9.2h3.38Z" transform="translate(-440.691 -433.918)" fill="#fff"/>
        <path id="Path_39649" data-name="Path 39649" d="M649.914,472.815a4.8,4.8,0,0,1,6.634,0,4.938,4.938,0,0,1,0,6.724,4.8,4.8,0,0,1-6.634,0,4.938,4.938,0,0,1,0-6.724Zm1.726,5.214a2.235,2.235,0,0,0,3.182,0,2.941,2.941,0,0,0,0-3.7,2.235,2.235,0,0,0-3.182,0,2.94,2.94,0,0,0,0,3.7Z" transform="translate(-592.392 -467.853)" fill="#fff"/>
        <path id="Path_39650" data-name="Path 39650" d="M769.476,473.567v2.409a3.675,3.675,0,0,0-.719-.072,2.335,2.335,0,0,0-1.654.584,2.512,2.512,0,0,0-.629,1.915v4.045h-2.391V473.6H766.4v1.312a2.505,2.505,0,0,1,2.517-1.384Q769.116,473.531,769.476,473.567Z" transform="translate(-696.717 -469.702)" fill="#fff"/>
        <path id="Path_39651" data-name="Path 39651" d="M836.142,477.472l2,.593a3.814,3.814,0,0,1-1.411,2.014,4.229,4.229,0,0,1-2.616.791,4.483,4.483,0,0,1-3.236-1.286,5.055,5.055,0,0,1-.036-6.8,4.166,4.166,0,0,1,3.056-1.3,4.211,4.211,0,0,1,3.209,1.223,4.687,4.687,0,0,1,1.16,3.362q0,.144-.009.324c-.006.12-.009.216-.009.288l-.018.126H831.9a1.96,1.96,0,0,0,.683,1.438,2.247,2.247,0,0,0,1.546.575A1.939,1.939,0,0,0,836.142,477.472Zm-4.189-2.3h3.955a1.839,1.839,0,0,0-.53-1.241,1.942,1.942,0,0,0-1.447-.5,1.9,1.9,0,0,0-1.4.539A1.813,1.813,0,0,0,831.953,475.171Z" transform="translate(-755.851 -467.853)" fill="#fff"/>
      </g>
    </g>
  </g>
</svg>
